<svg width="14" height="14" viewBox="0 0 14 14" fill="none" xmlns="http://www.w3.org/2000/svg">
<path d="M3.36257 13.9387C3.21408 13.9387 3.07168 13.8797 2.96668 13.7748C2.86169 13.6698 2.8027 13.5274 2.8027 13.3789V10.3906C2.49555 10.5371 2.15515 10.5999 1.81594 10.5725C1.52872 10.5514 1.24969 10.4673 0.998699 10.3261C0.747707 10.1849 0.530926 9.99007 0.363785 9.75554C0.196643 9.52102 0.0832509 9.25253 0.0316773 8.9692C-0.0198963 8.68587 -0.00838304 8.39465 0.0653976 8.11627C0.139178 7.83789 0.273412 7.5792 0.458547 7.3586C0.643681 7.138 0.875164 6.96092 1.13652 6.83997C1.39788 6.71901 1.68268 6.65715 1.97067 6.65879C2.25865 6.66043 2.54274 6.72552 2.8027 6.84944V3.86116C2.8027 3.71268 2.86169 3.57027 2.96668 3.46528C3.07168 3.36028 3.21408 3.3013 3.36257 3.3013H6.63078C6.48426 2.99415 6.42149 2.65374 6.44882 2.31454C6.46992 2.02732 6.55408 1.74829 6.69529 1.4973C6.8365 1.2463 7.0313 1.02952 7.26582 0.862381C7.50035 0.69524 7.76883 0.581847 8.05217 0.530274C8.3355 0.4787 8.62672 0.490213 8.9051 0.563994C9.18347 0.637774 9.44217 0.772009 9.66276 0.957143C9.88336 1.14228 10.0604 1.37376 10.1814 1.63512C10.3024 1.89647 10.3642 2.18128 10.3626 2.46926C10.3609 2.75725 10.2958 3.04133 10.1719 3.3013H13.4401C13.5886 3.3013 13.731 3.36028 13.836 3.46528C13.941 3.57027 14 3.71268 14 3.86116V6.84944C13.6929 6.70292 13.3524 6.64015 13.0132 6.66749C12.726 6.68859 12.447 6.77274 12.196 6.91395C11.945 7.05516 11.7282 7.24996 11.5611 7.48449C11.3939 7.71901 11.2805 7.98749 11.229 8.27083C11.1774 8.55416 11.1889 8.84538 11.2627 9.12376C11.3365 9.40214 11.4707 9.66083 11.6558 9.88143C11.841 10.102 12.0725 10.2791 12.3338 10.4001C12.5952 10.521 12.88 10.5829 13.168 10.5812C13.456 10.5796 13.74 10.5145 14 10.3906V13.3789C14 13.5274 13.941 13.6698 13.836 13.7748C13.731 13.8797 13.5886 13.9387 13.4401 13.9387H3.36257Z" fill="#AEB9E1"/>
</svg>
