<svg width="12" height="9" viewBox="0 0 12 9" fill="none" xmlns="http://www.w3.org/2000/svg">
<path d="M5.51738 2.06053C5.51738 3.19853 4.59485 4.12106 3.45685 4.12106C2.31885 4.12106 1.39632 3.19853 1.39632 2.06053C1.39632 0.922532 2.31885 0 3.45685 0C4.59485 0 5.51738 0.922532 5.51738 2.06053Z" fill="#AEB9E1"/>
<path d="M3.53862 4.51353H3.40779C3.23619 4.51353 3.09708 4.65265 3.09708 4.82425V5.06269C3.09708 5.1026 3.12944 5.13496 3.16935 5.13496C3.21596 5.13496 3.25036 5.17852 3.23969 5.22388L3.1916 5.42825C3.13653 5.66231 2.80899 5.67711 2.73295 5.44899L2.38593 4.40792C2.35893 4.32692 2.30924 4.2534 2.22534 4.23754C2.12867 4.21927 1.9627 4.21658 1.69068 4.28459C1.22076 4.40206 0.994366 4.65819 0.687015 5.10575C0.614795 5.21092 0.565482 5.32997 0.536753 5.45427C0.306992 6.44836 -0.1003 7.66721 0.0226306 7.88234C0.153458 8.11129 0.284286 8.27482 0.44782 8.34024C0.565862 8.38745 2.86516 8.36651 4.13526 8.3512C4.615 8.34542 5.01868 7.9972 5.11373 7.52693C5.40524 6.08473 5.67048 5.49247 6.17152 5.06955C6.23902 4.99594 5.80313 4.32076 5.22302 4.28459C5.01693 4.27173 4.87471 4.26801 4.77699 4.26856C4.64299 4.26931 4.54501 4.3562 4.50264 4.48332L4.18479 5.43686C4.11063 5.65935 3.78984 5.64028 3.74254 5.41058L3.70397 5.22321C3.69459 5.17765 3.72938 5.13496 3.7759 5.13496C3.81645 5.13496 3.84933 5.10208 3.84933 5.06153V4.82425C3.84933 4.65265 3.71022 4.51353 3.53862 4.51353Z" fill="#AEB9E1"/>
<path d="M10.7505 2.64928C10.7505 3.78728 9.82795 4.70981 8.68995 4.70981C7.55195 4.70981 6.62942 3.78728 6.62942 2.64928C6.62942 1.51128 7.55195 0.588745 8.68995 0.588745C9.82795 0.588745 10.7505 1.51128 10.7505 2.64928Z" fill="#AEB9E1"/>
<path d="M8.77172 5.10228H8.64089C8.46929 5.10228 8.33018 5.24139 8.33018 5.41299V5.65143C8.33018 5.69135 8.36254 5.72371 8.40245 5.72371C8.44906 5.72371 8.48346 5.76726 8.47279 5.81263L8.4247 6.01699C8.36963 6.25105 8.04209 6.26585 7.96605 6.03774L7.61903 4.99667C7.59203 4.91566 7.54234 4.84214 7.45844 4.82629C7.36177 4.80802 7.1958 4.80533 6.92378 4.87333C6.45386 4.99081 6.22747 5.24693 5.92012 5.6945C5.8479 5.79967 5.79858 5.91871 5.76985 6.04301C5.54009 7.0371 5.1328 8.25596 5.25573 8.47109C5.38656 8.70003 5.51739 8.86357 5.68092 8.92898C5.82474 8.98651 10.2438 8.94285 11.307 8.93149C11.4584 8.92987 11.6137 8.90205 11.7253 8.79973C12.2273 8.33925 11.9471 7.34453 11.6303 6.36154C11.4956 5.9437 11.2385 5.4201 10.9306 5.1072C10.8095 4.98417 10.6573 4.88588 10.4561 4.87333C10.25 4.86048 10.1078 4.85676 10.0101 4.8573C9.87609 4.85805 9.77811 4.94494 9.73574 5.07207L9.41789 6.02561C9.34373 6.24809 9.02294 6.22903 8.97564 5.99933L8.93707 5.81195C8.92769 5.7664 8.96249 5.72371 9.009 5.72371C9.04956 5.72371 9.08243 5.69083 9.08243 5.65027V5.41299C9.08243 5.24139 8.94332 5.10228 8.77172 5.10228Z" fill="#AEB9E1"/>
</svg>
