<svg width="13" height="11" viewBox="0 0 13 11" fill="none" xmlns="http://www.w3.org/2000/svg">
<path fill-rule="evenodd" clip-rule="evenodd" d="M11.5082 0.941682C11.2131 0.769974 10.87 0.671631 10.5039 0.671631H2.50391C2.13829 0.671631 1.79559 0.769738 1.50069 0.941062L6.34515 4.97004C6.43765 5.0469 6.57188 5.04673 6.66448 4.97004L11.5082 0.941682ZM0.579526 2.125C0.530268 2.29874 0.503906 2.48211 0.503906 2.67163V8.06266C0.503906 9.16723 1.39934 10.0627 2.50391 10.0627H10.5039C11.6085 10.0627 12.5039 9.16723 12.5039 8.06266V2.67163C12.5039 2.48279 12.4777 2.30006 12.4288 2.12687L7.62444 6.12336C6.97599 6.66268 6.03468 6.66255 5.38616 6.12336L0.579526 2.125Z" fill="white"/>
</svg>
