<svg width="14" height="15" viewBox="0 0 14 15" fill="none" xmlns="http://www.w3.org/2000/svg">
<path d="M8.73914 0.5C9.01529 0.5 9.23914 0.723858 9.23914 1V3.61523L11.5057 2.30664C11.7447 2.16869 12.0501 2.25062 12.1884 2.48926L13.9305 5.50781C14.0685 5.74688 13.9869 6.05226 13.7479 6.19043L11.4804 7.49902L13.7479 8.80859C13.987 8.94667 14.0685 9.25208 13.9305 9.49121L12.1884 12.5098C12.0502 12.7486 11.7447 12.8304 11.5057 12.6924L9.23914 11.3828V14C9.23914 14.2761 9.01529 14.5 8.73914 14.5H5.25477C4.97901 14.4995 4.75477 14.2759 4.75477 14V11.3828L2.49207 12.6904C2.25305 12.8282 1.94749 12.7467 1.80946 12.5078L0.0672684 9.48926C-0.0704297 9.25028 0.0111624 8.94477 0.249886 8.80664L2.51258 7.49902L0.249886 6.19238C0.0113171 6.05415 -0.070493 5.74868 0.0672684 5.50977L1.80946 2.49121C1.94756 2.25253 2.25315 2.1709 2.49207 2.30859L4.75477 3.61523V1C4.75477 0.724139 4.97901 0.500456 5.25477 0.5H8.73914ZM6.99891 5.62695C5.9649 5.62707 5.12684 6.46575 5.12684 7.5C5.12697 8.53414 5.96498 9.37293 6.99891 9.37305C8.03293 9.37305 8.87182 8.53421 8.87196 7.5C8.87196 6.46568 8.03301 5.62695 6.99891 5.62695Z" fill="#AEB9E1"/>
</svg>
